<svg xmlns="http://www.w3.org/2000/svg" width="30" height="30"><path fill="#2D91B3" d="M17.3 19.1c-.3-.4-.7-.8-1.1-1.2-.4-.4-.8-.7-1.2-1l-1.1-.9c-.3-.3-.6-.6-.8-.9-.2-.3-.3-.6-.3-.9 0-.4.1-.8.4-1.2.3-.4.6-.7 1-1.1.4-.4.8-.7 1.2-1.2.4-.4.7-1 1-1.7.4-.6.6-1.4.6-2.3 0-1.1-.2-2.1-.7-3s-1.1-1.7-2-2.3h2.4L19.1 0h-7.9c-1 0-2.2.1-3.3.4-1.7.3-3.1 1.2-4.2 2.5C2.5 4.2 2 5.7 2 7.4c0 1.8.6 3.3 1.9 4.4 1.3 1.2 2.8 1.8 4.6 1.8.4 0 .8 0 1.3-.1 0 .1-.1.2-.1.4-.1.2-.1.3-.1.4 0 .1-.1.2-.1.4v.4c0 .8.4 1.7 1.2 2.7-.9 0-1.8.1-2.7.2-1.1.2-2 .4-3 .7-1 .3-1.8.7-2.6 1.3-.8.6-1.3 1.2-1.7 2-.5.8-.7 1.6-.7 2.4 0 .8.2 1.5.5 2.2.4.7.8 1.2 1.4 1.6.6.4 1.2.8 2 1 .7.3 1.5.5 2.2.6.7.1 1.4.2 2.1.2 3.2 0 5.7-.8 7.6-2.4 1.7-1.5 2.5-3.2 2.5-5.1 0-.7-.1-1.3-.3-1.9-.2-.6-.4-1.1-.7-1.5zm-7-6.6c-.6 0-1.2-.2-1.7-.5-.6-.3-1-.7-1.4-1.2-.4-.5-.7-1.1-1-1.7-.3-.5-.6-1.2-.7-1.8-.1-.6-.2-1.2-.2-1.8 0-1.2.3-2.1.9-3 .6-.8 1.5-1.2 2.6-1.2.8 0 1.5.2 2.2.7s1.1 1.1 1.5 1.9c.4.8.6 1.5.8 2.4.2.8.3 1.6.3 2.3 0 1.2-.3 2.2-.8 2.9-.5.7-1.3 1-2.5 1zm5 13.6c-.3.6-.8 1-1.3 1.3-.6.3-1.2.6-1.8.7-.6.2-1.3.2-2 .2-.8 0-1.5-.1-2.3-.3-.8-.2-1.5-.5-2.2-.8-.7-.3-1.3-.8-1.7-1.5-.4-.6-.6-1.4-.6-2.2 0-.7.2-1.4.5-1.9.3-.6.7-1 1.2-1.4.5-.3 1.1-.6 1.8-.8.7-.2 1.3-.4 1.9-.5.6-.1 1.3-.1 1.9-.1h.9c.1 0 .3.2.5.4.3.2.5.3.6.4.1.1.3.2.6.4s.5.4.6.5l.5.5.5.5c.1.2.2.3.4.5s.3.4.3.6l.2.6c.1.2.1.5.1.7-.1 1-.3 1.6-.6 2.2zM25.4 4.6V0h-2.3v4.6h-4.6v2.3h4.6v4.6h2.3V6.9H30V4.6h-4.6zm0 0"/></svg>