<svg xmlns="http://www.w3.org/2000/svg" width="200" height="27.727" viewBox="35 23.637 200 27.727" enable-background="new 35 23.637 200 27.727"><path fill="#5C5957" d="M108.12 32.37h-6.1c-1.43 0-2.6 1.16-2.6 2.6v16.4h1.2v-16.4c0-.8.62-1.42 1.4-1.42h6.1c.78 0 1.4.63 1.4 1.4v5.1c0 .76-.62 1.4-1.4 1.4h-5c-1.12 0-2.04.92-2.04 2.05v.24h1.2v-.24c0-.48.38-.86.85-.86h5c1.43 0 2.6-1.17 2.6-2.6v-5.08c0-1.43-1.18-2.6-2.6-2.6zm25.47 0h-5c-.48 0-.87-.4-.87-.87v-.24h-1.2v.24c0 1.13.93 2.05 2.07 2.05h5c.76 0 1.4.64 1.4 1.4v5.1c0 .77-.64 1.4-1.4 1.4h-6.12c-.78 0-1.4-.64-1.4-1.4v-16.4h-1.2v16.4c0 1.42 1.17 2.6 2.6 2.6h6.1c1.44-.02 2.6-1.18 2.6-2.6v-5.1c0-1.42-1.16-2.58-2.6-2.58zm12.72 0h-5c-.47 0-.86-.4-.86-.87v-.24h-1.18v.24c0 1.13.92 2.05 2.05 2.05h5c.76 0 1.4.64 1.4 1.4v5.1c0 .77-.64 1.4-1.4 1.4h-6.12c-.76 0-1.4-.64-1.4-1.4v-16.4h-1.18v16.4c0 1.42 1.16 2.6 2.6 2.6h6.1c1.43-.02 2.6-1.18 2.6-2.6v-5.1c0-1.42-1.17-2.58-2.6-2.58zm5.2 7.67v-16.4h-1.17v16.4c0 1.43 1.16 2.6 2.6 2.6h.24v-1.2h-.25c-.78 0-1.42-.63-1.42-1.4zm-30.67-7.67h-6.1c-1.43 0-2.6 1.16-2.6 2.6v5.07c0 1.43 1.17 2.6 2.6 2.6h8.7v-1.2h-8.7c-.78 0-1.4-.63-1.4-1.4v-5.08c0-.78.62-1.4 1.4-1.4h6.1c.78 0 1.4.62 1.4 1.4v2.3c0 .8-.62 1.42-1.4 1.42h-4.3c-1.12 0-2.04.92-2.04 2.05v.24h1.2v-.24c0-.47.38-.86.86-.86h4.3c1.42 0 2.6-1.17 2.6-2.6v-2.3c0-1.44-1.17-2.6-2.6-2.6zm42.47 0h-6.1c-1.44 0-2.6 1.16-2.6 2.6v5.07c0 1.43 1.16 2.6 2.6 2.6h8.7v-1.2h-8.7c-.78 0-1.42-.63-1.42-1.4v-5.08c0-.78.64-1.4 1.4-1.4h6.12c.78 0 1.4.62 1.4 1.4v2.3c0 .8-.62 1.42-1.4 1.42h-4.3c-1.13 0-2.05.92-2.05 2.05v.24h1.2v-.24c0-.47.38-.86.86-.86h4.3c1.42 0 2.6-1.17 2.6-2.6v-2.3c0-1.44-1.18-2.6-2.6-2.6z"/><path fill="#A7A9AC" d="M232.4 32.37h-6.1c-1.43 0-2.6 1.16-2.6 2.6v7.66h1.2v-7.67c0-.78.62-1.4 1.4-1.4h6.1c.78 0 1.4.62 1.4 1.4v7.67h1.2v-7.67c0-1.43-1.16-2.6-2.6-2.6zm-26.64-1.44h1.27c.47 0 .86-.4.86-.92v-.78c0-.5-.4-.93-.87-.93h-1.27c-.47 0-.85.4-.85.92v.8c0 .5.4.9.86.9zm.34-1.18v-.27h.6v.27h-.6zm-28.16 10.3c0 .76-.64 1.4-1.4 1.4h-6.12c-.77 0-1.4-.64-1.4-1.4v-5.1c0-.77.63-1.4 1.4-1.4h5c1.12 0 2.04-.92 2.04-2.05v-.24h-1.18v.24c0 .48-.4.86-.87.86h-4.98c-1.43 0-2.6 1.17-2.6 2.6v5.08c0 1.43 1.17 2.6 2.6 2.6h6.1c1.44 0 2.6-1.17 2.6-2.6v-16.4h-1.18v16.4zm41.73-7.68h-6.1c-1.43 0-2.6 1.16-2.6 2.6v5.07c0 1.43 1.17 2.6 2.6 2.6h4.3c.47 0 .86.38.86.86v.24h1.18v-.24c0-1.13-.9-2.05-2.04-2.05h-4.3c-.77 0-1.4-.64-1.4-1.4v-5.1c0-.77.63-1.4 1.4-1.4h6.1c.8 0 1.42.63 1.42 1.4v8.55c0 .78-.63 1.4-1.4 1.4h-6.35v1.2h6.34c1.43 0 2.6-1.17 2.6-2.6v-8.54c0-1.43-1.17-2.6-2.6-2.6zm-11.78 7.67v-5.08c0-1.43-1.17-2.6-2.6-2.6h-9.43c-1.43 0-2.6 1.17-2.6 2.6v1.17c0 1.43 1.17 2.6 2.6 2.6h6.6c.5 0 .92.4.92.9v.9c0 .5-.42.92-.92.92h-19.33c-.78 0-1.4-.64-1.4-1.4v-5.1c0-.77.62-1.4 1.4-1.4h6.1c.78 0 1.42.63 1.42 1.4v2.32c0 .78-.64 1.4-1.4 1.4h-4.3c-1.14 0-2.06.93-2.06 2.06v.24h1.2v-.24c0-.48.38-.86.86-.86h4.3c1.43 0 2.6-1.17 2.6-2.6v-2.3c0-1.44-1.17-2.6-2.6-2.6h-6.1c-1.44 0-2.6 1.16-2.6 2.6v5.07c0 1.43 1.16 2.6 2.6 2.6h19.32c1.16 0 2.1-.95 2.1-2.1v-.9c0-1.16-.95-2.1-2.1-2.1h-6.6c-.78 0-1.42-.64-1.42-1.42v-1.16c0-.78.64-1.4 1.4-1.4h9.43c.77 0 1.4.62 1.4 1.4v5.08c0 1.43 1.16 2.6 2.6 2.6h.24v-1.2h-.24c-.78 0-1.4-.63-1.4-1.4z"/><path fill="#5C5957" d="M44.72 34.73l-2.13 6.65h-1.25l-1.48-4.64-1.5 4.64h-1.24L35 34.73h1.26l1.5 4.9 1.58-4.9h1.04l1.6 4.9 1.5-4.9h1.24zm2.24 2.76h2.8v1.12h-2.8v1.68h3.23v1.08h-4.43v-6.65h4.42v1.07h-3.24v1.7zm9.67 1.92c0 .77-.32 1.96-2.43 1.96h-2.64v-6.65h2.4c1.13 0 2.3.43 2.3 1.87 0 .66-.37 1.07-.8 1.3.53.18 1.17.6 1.17 1.52zm-3.87-1.98h1.27c.16 0 1.04.06 1.04-.8 0-.75-.64-.87-1.13-.87h-1.18v1.67zm2.67 1.92c0-.78-.77-.86-1.33-.86h-1.34v1.83h1.38c.67 0 1.3-.2 1.3-.97zm6.9.26c0 1.1-1.06 1.84-2.3 1.84-.94 0-1.65-.24-2.2-.57v-1.23c.48.35 1.1.64 1.93.64.68 0 1.37-.14 1.37-.76 0-1.47-3.38-.63-3.38-2.96 0-1.35 1.13-1.93 2.37-1.93.67 0 1.27.2 1.8.46v1.17c-.42-.27-.97-.5-1.66-.5-.62 0-1.3.18-1.3.78 0 1.22 3.37.36 3.37 3.07zm1.48 1.76v-6.65H65v6.65h-1.2zm7.78-6.65v1.2h-2.14v5.45h-1.2v-5.46h-2.12v-1.2h5.46zm2.28 2.76h2.8v1.12h-2.8v1.68h3.23v1.08h-4.44v-6.65h4.43v1.07h-3.24v1.7zm13.1 1.92c0 .77-.3 1.96-2.43 1.96H81.9v-6.65h2.4c1.13 0 2.3.43 2.3 1.87 0 .66-.37 1.07-.8 1.3.53.18 1.17.6 1.17 1.52zm-3.86-1.98h1.26c.16 0 1.04.06 1.04-.8 0-.75-.64-.87-1.13-.87H83.1v1.67zm2.67 1.92c0-.78-.78-.86-1.34-.86H83.1v1.83h1.37c.68 0 1.3-.2 1.3-.97zm5.64-.83v2.85h-1.2v-2.85l-2.6-3.8h1.44l1.77 2.7 1.76-2.7H94l-2.6 3.8z"/></svg>