<svg xmlns="http://www.w3.org/2000/svg" width="30" height="30"><path fill="#2D91B3" d="M28 7.5c-1.3-2.3-3.2-4.1-5.5-5.5C20.2.7 17.7 0 15 0S9.8.7 7.5 2C5.2 3.4 3.4 5.2 2 7.5.7 9.8 0 12.3 0 15c0 3 .8 5.8 2.5 8.3 1.7 2.5 3.8 4.3 6.5 5.5-.1-1.4 0-2.5.3-3.5l1.9-8.2c-.3-.6-.5-1.4-.5-2.4 0-1.1.3-2 .8-2.8.6-.7 1.2-1.1 2.1-1.1.7 0 1.2.2 1.5.6.4.4.5 1 .5 1.6 0 .4-.1.9-.2 1.5s-.3 1.3-.6 2-.4 1.4-.5 1.8c-.2.8 0 1.5.4 2 .5.6 1.1.8 1.9.8 1.4 0 2.5-.8 3.4-2.3.9-1.6 1.3-3.4 1.3-5.6 0-1.7-.5-3.1-1.7-4.2C18.5 7.9 17 7.4 15 7.4c-2.2 0-4 .7-5.3 2.1-1.4 1.4-2 3.1-2 5.1 0 1.2.3 2.2 1 3 .3.4.4.7.3 1 0 .1-.1.3-.2.6s-.1.5-.2.6c-.1.4-.4.5-.7.4-1-.4-1.8-1.1-2.3-2.2-.5-1-.8-2.2-.8-3.6 0-.9.1-1.7.4-2.6.3-.9.7-1.7 1.3-2.5.6-.8 1.3-1.5 2.1-2.2.8-.6 1.8-1.1 3-1.5 1.3-.4 2.6-.6 4-.6 1.8 0 3.5.4 5 1.2 1.5.8 2.6 1.9 3.4 3.2.8 1.3 1.2 2.7 1.2 4.2 0 2-.3 3.7-1 5.3-.7 1.6-1.6 2.8-2.9 3.7-1.2.9-2.6 1.3-4.2 1.3-.8 0-1.5-.2-2.2-.6-.7-.4-1.2-.8-1.4-1.3-.6 2.3-.9 3.7-1.1 4.1-.2.9-.8 2-1.5 3.2 1.4.4 2.8.6 4.3.6 2.7 0 5.2-.7 7.5-2s4.1-3.2 5.5-5.5c1.3-2.3 2-4.8 2-7.5-.2-2.6-.9-5.1-2.2-7.4zm0 0"/></svg>