<svg xmlns="http://www.w3.org/2000/svg" width="37" height="30"><path fill="#2D91B3" d="M37 3.6c-1.4.6-2.8 1-4.4 1.2 1.6-.9 2.8-2.4 3.3-4.2-1.5.9-3.1 1.5-4.8 1.8C29.8.9 27.8 0 25.6 0 21.4 0 18 3.4 18 7.6c0 .6.1 1.2.2 1.7C11.9 9 6.3 6 2.6 1.4c-.7 1.1-1 2.4-1 3.8 0 2.6 1.3 4.9 3.4 6.3-1.2 0-2.4-.4-3.4-.9v.1c0 3.7 2.6 6.7 6.1 7.4-.6.2-1.3.3-2 .3-.5 0-1 0-1.4-.1 1 3 3.8 5.2 7.1 5.3-2.6 2-5.9 3.2-9.4 3.2-.6 0-1.2 0-1.8-.1 3.2 2 7.1 3.3 11.4 3.3 14 0 21.6-11.5 21.6-21.5v-1C34.7 6.4 36 5.1 37 3.6"/></svg>